<mxfile host="app.diagrams.net" modified="2024-01-23T00:22:39.916Z" agent="Mozilla/5.0 (X11; Linux x86_64) AppleWebKit/537.36 (KHTML, like Gecko) Chrome/120.0.0.0 Safari/537.36" etag="lANII3CVOaZAIJ4DWQfU" version="22.1.21" type="device">
  <diagram name="Page-1" id="p_rUBH6mPYEMSK6lUTbz">
    <mxGraphModel dx="1360" dy="793" grid="1" gridSize="10" guides="1" tooltips="1" connect="1" arrows="1" fold="1" page="1" pageScale="1" pageWidth="850" pageHeight="1100" math="0" shadow="0">
      <root>
        <mxCell id="0" />
        <mxCell id="1" parent="0" />
        <mxCell id="4QWSZfUUT_y2l5mApA1l-1" value="AWS Cloud" style="points=[[0,0],[0.25,0],[0.5,0],[0.75,0],[1,0],[1,0.25],[1,0.5],[1,0.75],[1,1],[0.75,1],[0.5,1],[0.25,1],[0,1],[0,0.75],[0,0.5],[0,0.25]];outlineConnect=0;gradientColor=none;html=1;whiteSpace=wrap;fontSize=12;fontStyle=0;container=1;pointerEvents=0;collapsible=0;recursiveResize=0;shape=mxgraph.aws4.group;grIcon=mxgraph.aws4.group_aws_cloud_alt;strokeColor=#232F3E;fillColor=none;verticalAlign=top;align=left;spacingLeft=30;fontColor=#232F3E;dashed=0;" parent="1" vertex="1">
          <mxGeometry x="310" y="120" width="1050" height="790" as="geometry" />
        </mxCell>
        <mxCell id="4QWSZfUUT_y2l5mApA1l-2" value="Region" style="points=[[0,0],[0.25,0],[0.5,0],[0.75,0],[1,0],[1,0.25],[1,0.5],[1,0.75],[1,1],[0.75,1],[0.5,1],[0.25,1],[0,1],[0,0.75],[0,0.5],[0,0.25]];outlineConnect=0;gradientColor=none;html=1;whiteSpace=wrap;fontSize=12;fontStyle=0;container=1;pointerEvents=0;collapsible=0;recursiveResize=0;shape=mxgraph.aws4.group;grIcon=mxgraph.aws4.group_region;strokeColor=#00A4A6;fillColor=none;verticalAlign=top;align=left;spacingLeft=30;fontColor=#147EBA;dashed=1;" parent="4QWSZfUUT_y2l5mApA1l-1" vertex="1">
          <mxGeometry x="40" y="25" width="990" height="745" as="geometry" />
        </mxCell>
        <mxCell id="M6X5e_UlNOtrp2TcjelM-7" value="Availability Zone" style="fillColor=none;strokeColor=#147EBA;dashed=1;verticalAlign=top;fontStyle=0;fontColor=#147EBA;whiteSpace=wrap;html=1;" parent="4QWSZfUUT_y2l5mApA1l-2" vertex="1">
          <mxGeometry x="520" y="30" width="350" height="690" as="geometry" />
        </mxCell>
        <mxCell id="M6X5e_UlNOtrp2TcjelM-8" value="Public subnet" style="points=[[0,0],[0.25,0],[0.5,0],[0.75,0],[1,0],[1,0.25],[1,0.5],[1,0.75],[1,1],[0.75,1],[0.5,1],[0.25,1],[0,1],[0,0.75],[0,0.5],[0,0.25]];outlineConnect=0;gradientColor=none;html=1;whiteSpace=wrap;fontSize=12;fontStyle=0;container=1;pointerEvents=0;collapsible=0;recursiveResize=0;shape=mxgraph.aws4.group;grIcon=mxgraph.aws4.group_security_group;grStroke=0;strokeColor=#7AA116;fillColor=#F2F6E8;verticalAlign=top;align=left;spacingLeft=30;fontColor=#248814;dashed=0;" parent="4QWSZfUUT_y2l5mApA1l-2" vertex="1">
          <mxGeometry x="570" y="100" width="280" height="210" as="geometry" />
        </mxCell>
        <mxCell id="4QWSZfUUT_y2l5mApA1l-5" value="Private subnet" style="points=[[0,0],[0.25,0],[0.5,0],[0.75,0],[1,0],[1,0.25],[1,0.5],[1,0.75],[1,1],[0.75,1],[0.5,1],[0.25,1],[0,1],[0,0.75],[0,0.5],[0,0.25]];outlineConnect=0;gradientColor=none;html=1;whiteSpace=wrap;fontSize=12;fontStyle=0;container=1;pointerEvents=0;collapsible=0;recursiveResize=0;shape=mxgraph.aws4.group;grIcon=mxgraph.aws4.group_security_group;grStroke=0;strokeColor=#00A4A6;fillColor=#E6F6F7;verticalAlign=top;align=left;spacingLeft=30;fontColor=#147EBA;dashed=0;" parent="4QWSZfUUT_y2l5mApA1l-2" vertex="1">
          <mxGeometry x="550" y="410" width="280" height="210" as="geometry" />
        </mxCell>
        <mxCell id="4QWSZfUUT_y2l5mApA1l-3" value="VPC" style="points=[[0,0],[0.25,0],[0.5,0],[0.75,0],[1,0],[1,0.25],[1,0.5],[1,0.75],[1,1],[0.75,1],[0.5,1],[0.25,1],[0,1],[0,0.75],[0,0.5],[0,0.25]];outlineConnect=0;gradientColor=none;html=1;whiteSpace=wrap;fontSize=12;fontStyle=0;container=1;pointerEvents=0;collapsible=0;recursiveResize=0;shape=mxgraph.aws4.group;grIcon=mxgraph.aws4.group_vpc2;strokeColor=#8C4FFF;fillColor=none;verticalAlign=top;align=left;spacingLeft=30;fontColor=#AAB7B8;dashed=0;" parent="4QWSZfUUT_y2l5mApA1l-2" vertex="1">
          <mxGeometry x="60" y="50" width="870" height="620" as="geometry" />
        </mxCell>
        <mxCell id="4QWSZfUUT_y2l5mApA1l-9" value="Availability Zone" style="fillColor=none;strokeColor=#147EBA;dashed=1;verticalAlign=top;fontStyle=0;fontColor=#147EBA;whiteSpace=wrap;html=1;" parent="4QWSZfUUT_y2l5mApA1l-3" vertex="1">
          <mxGeometry x="40" y="-20" width="370" height="690" as="geometry" />
        </mxCell>
        <mxCell id="4QWSZfUUT_y2l5mApA1l-6" value="Public subnet" style="points=[[0,0],[0.25,0],[0.5,0],[0.75,0],[1,0],[1,0.25],[1,0.5],[1,0.75],[1,1],[0.75,1],[0.5,1],[0.25,1],[0,1],[0,0.75],[0,0.5],[0,0.25]];outlineConnect=0;gradientColor=none;html=1;whiteSpace=wrap;fontSize=12;fontStyle=0;container=1;pointerEvents=0;collapsible=0;recursiveResize=0;shape=mxgraph.aws4.group;grIcon=mxgraph.aws4.group_security_group;grStroke=0;strokeColor=#7AA116;fillColor=#F2F6E8;verticalAlign=top;align=left;spacingLeft=30;fontColor=#248814;dashed=0;" parent="4QWSZfUUT_y2l5mApA1l-3" vertex="1">
          <mxGeometry x="50" y="50" width="270" height="203" as="geometry" />
        </mxCell>
        <mxCell id="4QWSZfUUT_y2l5mApA1l-10" value="" style="outlineConnect=0;dashed=0;verticalLabelPosition=bottom;verticalAlign=top;align=center;html=1;shape=mxgraph.aws3.elastic_load_balancing;fillColor=#F58536;gradientColor=none;" parent="4QWSZfUUT_y2l5mApA1l-6" vertex="1">
          <mxGeometry x="100" y="50" width="60" height="60" as="geometry" />
        </mxCell>
        <mxCell id="M6X5e_UlNOtrp2TcjelM-1" value="" style="outlineConnect=0;dashed=0;verticalLabelPosition=bottom;verticalAlign=top;align=center;html=1;shape=mxgraph.aws3.route_53;fillColor=#F58536;gradientColor=none;" parent="4QWSZfUUT_y2l5mApA1l-6" vertex="1">
          <mxGeometry x="5" y="65" width="30" height="40" as="geometry" />
        </mxCell>
        <mxCell id="M6X5e_UlNOtrp2TcjelM-19" value="Application&amp;nbsp;&lt;br&gt;load balancer" style="fillColor=none;strokeColor=#DD3522;verticalAlign=top;fontStyle=0;fontColor=#DD3522;whiteSpace=wrap;html=1;" parent="4QWSZfUUT_y2l5mApA1l-3" vertex="1">
          <mxGeometry x="140" y="82.5" width="585" height="95" as="geometry" />
        </mxCell>
        <mxCell id="4QWSZfUUT_y2l5mApA1l-4" value="Private subnet" style="points=[[0,0],[0.25,0],[0.5,0],[0.75,0],[1,0],[1,0.25],[1,0.5],[1,0.75],[1,1],[0.75,1],[0.5,1],[0.25,1],[0,1],[0,0.75],[0,0.5],[0,0.25]];outlineConnect=0;gradientColor=none;html=1;whiteSpace=wrap;fontSize=12;fontStyle=0;container=1;pointerEvents=0;collapsible=0;recursiveResize=0;shape=mxgraph.aws4.group;grIcon=mxgraph.aws4.group_security_group;grStroke=0;strokeColor=#00A4A6;fillColor=#E6F6F7;verticalAlign=top;align=left;spacingLeft=30;fontColor=#147EBA;dashed=0;" parent="4QWSZfUUT_y2l5mApA1l-3" vertex="1">
          <mxGeometry x="60" y="350" width="330" height="240" as="geometry" />
        </mxCell>
        <mxCell id="M6X5e_UlNOtrp2TcjelM-5" value="route 53" style="text;html=1;strokeColor=none;fillColor=none;align=center;verticalAlign=middle;whiteSpace=wrap;rounded=0;" parent="4QWSZfUUT_y2l5mApA1l-3" vertex="1">
          <mxGeometry x="40" y="150" width="60" height="30" as="geometry" />
        </mxCell>
        <mxCell id="4QWSZfUUT_y2l5mApA1l-52" value="EC2" style="text;html=1;strokeColor=none;fillColor=none;align=center;verticalAlign=middle;whiteSpace=wrap;rounded=0;" parent="4QWSZfUUT_y2l5mApA1l-3" vertex="1">
          <mxGeometry x="200" y="505" width="60" height="30" as="geometry" />
        </mxCell>
        <mxCell id="M6X5e_UlNOtrp2TcjelM-13" value="&amp;nbsp;" style="fillColor=none;strokeColor=#EA6B66;verticalAlign=top;fontStyle=0;fontColor=#DD3522;whiteSpace=wrap;html=1;" parent="4QWSZfUUT_y2l5mApA1l-3" vertex="1">
          <mxGeometry x="30" y="410" width="760" height="130" as="geometry" />
        </mxCell>
        <mxCell id="4QWSZfUUT_y2l5mApA1l-14" value="" style="outlineConnect=0;dashed=0;verticalLabelPosition=bottom;verticalAlign=top;align=center;html=1;shape=mxgraph.aws3.network_access_controllist;fillColor=#F58534;gradientColor=none;" parent="4QWSZfUUT_y2l5mApA1l-3" vertex="1">
          <mxGeometry x="205" y="335" width="40" height="40" as="geometry" />
        </mxCell>
        <mxCell id="4QWSZfUUT_y2l5mApA1l-51" value="NACL" style="text;html=1;strokeColor=none;fillColor=none;align=center;verticalAlign=middle;whiteSpace=wrap;rounded=0;" parent="4QWSZfUUT_y2l5mApA1l-3" vertex="1">
          <mxGeometry x="240" y="335" width="60" height="30" as="geometry" />
        </mxCell>
        <mxCell id="4QWSZfUUT_y2l5mApA1l-11" value="" style="outlineConnect=0;dashed=0;verticalLabelPosition=bottom;verticalAlign=top;align=center;html=1;shape=mxgraph.aws3.route_table;fillColor=#F58536;gradientColor=none;" parent="4QWSZfUUT_y2l5mApA1l-3" vertex="1">
          <mxGeometry x="240" y="105" width="70" height="50" as="geometry" />
        </mxCell>
        <mxCell id="M6X5e_UlNOtrp2TcjelM-9" value="" style="outlineConnect=0;dashed=0;verticalLabelPosition=bottom;verticalAlign=top;align=center;html=1;shape=mxgraph.aws3.elastic_load_balancing;fillColor=#F58536;gradientColor=none;" parent="4QWSZfUUT_y2l5mApA1l-3" vertex="1">
          <mxGeometry x="630" y="100" width="60" height="60" as="geometry" />
        </mxCell>
        <mxCell id="M6X5e_UlNOtrp2TcjelM-10" value="" style="outlineConnect=0;dashed=0;verticalLabelPosition=bottom;verticalAlign=top;align=center;html=1;shape=mxgraph.aws3.route_table;fillColor=#F58536;gradientColor=none;" parent="4QWSZfUUT_y2l5mApA1l-3" vertex="1">
          <mxGeometry x="540" y="105" width="70" height="50" as="geometry" />
        </mxCell>
        <mxCell id="M6X5e_UlNOtrp2TcjelM-28" value="" style="edgeStyle=orthogonalEdgeStyle;html=1;endArrow=block;elbow=vertical;startArrow=none;endFill=1;strokeColor=#545B64;rounded=0;" parent="4QWSZfUUT_y2l5mApA1l-3" edge="1">
          <mxGeometry width="100" relative="1" as="geometry">
            <mxPoint x="20" y="135" as="sourcePoint" />
            <mxPoint x="60" y="135" as="targetPoint" />
          </mxGeometry>
        </mxCell>
        <mxCell id="M6X5e_UlNOtrp2TcjelM-29" value="" style="edgeStyle=orthogonalEdgeStyle;html=1;endArrow=block;elbow=vertical;startArrow=none;endFill=1;strokeColor=#545B64;rounded=0;" parent="4QWSZfUUT_y2l5mApA1l-3" edge="1">
          <mxGeometry width="100" relative="1" as="geometry">
            <mxPoint x="90" y="135" as="sourcePoint" />
            <mxPoint x="130" y="135" as="targetPoint" />
          </mxGeometry>
        </mxCell>
        <mxCell id="M6X5e_UlNOtrp2TcjelM-26" value="&lt;font color=&quot;#ff0022&quot;&gt;security group&lt;/font&gt;" style="text;html=1;strokeColor=none;fillColor=none;align=center;verticalAlign=middle;whiteSpace=wrap;rounded=0;" parent="4QWSZfUUT_y2l5mApA1l-3" vertex="1">
          <mxGeometry x="20" y="410" width="110" height="30" as="geometry" />
        </mxCell>
        <mxCell id="M6X5e_UlNOtrp2TcjelM-32" value="NAT gateway" style="sketch=0;outlineConnect=0;fontColor=#232F3E;gradientColor=none;strokeColor=#232F3E;fillColor=#ffffff;dashed=0;verticalLabelPosition=bottom;verticalAlign=top;align=center;html=1;fontSize=12;fontStyle=0;aspect=fixed;shape=mxgraph.aws4.resourceIcon;resIcon=mxgraph.aws4.nat_gateway;" parent="4QWSZfUUT_y2l5mApA1l-3" vertex="1">
          <mxGeometry x="60" y="177.5" width="60" height="60" as="geometry" />
        </mxCell>
        <mxCell id="3zztnQVdwUbiozca_DF9-1" value="" style="outlineConnect=0;dashed=0;verticalLabelPosition=bottom;verticalAlign=top;align=center;html=1;shape=mxgraph.aws3.ec2;fillColor=#F58534;gradientColor=none;" vertex="1" parent="4QWSZfUUT_y2l5mApA1l-3">
          <mxGeometry x="630" y="197.5" width="40" height="40" as="geometry" />
        </mxCell>
        <mxCell id="4QWSZfUUT_y2l5mApA1l-53" value="EC2" style="text;html=1;strokeColor=none;fillColor=none;align=center;verticalAlign=middle;whiteSpace=wrap;rounded=0;" parent="4QWSZfUUT_y2l5mApA1l-2" vertex="1">
          <mxGeometry x="690" y="555" width="60" height="30" as="geometry" />
        </mxCell>
        <mxCell id="M6X5e_UlNOtrp2TcjelM-14" value="" style="outlineConnect=0;dashed=0;verticalLabelPosition=bottom;verticalAlign=top;align=center;html=1;shape=mxgraph.aws3.network_access_controllist;fillColor=#F58534;gradientColor=none;" parent="4QWSZfUUT_y2l5mApA1l-2" vertex="1">
          <mxGeometry x="670" y="395" width="40" height="40" as="geometry" />
        </mxCell>
        <mxCell id="M6X5e_UlNOtrp2TcjelM-15" value="NACL" style="text;html=1;strokeColor=none;fillColor=none;align=center;verticalAlign=middle;whiteSpace=wrap;rounded=0;" parent="4QWSZfUUT_y2l5mApA1l-2" vertex="1">
          <mxGeometry x="710" y="395" width="60" height="30" as="geometry" />
        </mxCell>
        <mxCell id="M6X5e_UlNOtrp2TcjelM-33" value="NAT gateway" style="sketch=0;outlineConnect=0;fontColor=#232F3E;gradientColor=none;strokeColor=#232F3E;fillColor=#ffffff;dashed=0;verticalLabelPosition=bottom;verticalAlign=top;align=center;html=1;fontSize=12;fontStyle=0;aspect=fixed;shape=mxgraph.aws4.resourceIcon;resIcon=mxgraph.aws4.nat_gateway;" parent="4QWSZfUUT_y2l5mApA1l-2" vertex="1">
          <mxGeometry x="580" y="235" width="60" height="60" as="geometry" />
        </mxCell>
        <mxCell id="3zztnQVdwUbiozca_DF9-2" value="jump server" style="text;html=1;strokeColor=none;fillColor=none;align=center;verticalAlign=middle;whiteSpace=wrap;rounded=0;" vertex="1" parent="4QWSZfUUT_y2l5mApA1l-2">
          <mxGeometry x="670" y="285" width="80" height="30" as="geometry" />
        </mxCell>
        <mxCell id="4QWSZfUUT_y2l5mApA1l-18" value="" style="sketch=0;outlineConnect=0;fontColor=#232F3E;gradientColor=none;fillColor=#232F3D;strokeColor=none;dashed=0;verticalLabelPosition=bottom;verticalAlign=top;align=center;html=1;fontSize=12;fontStyle=0;aspect=fixed;pointerEvents=1;shape=mxgraph.aws4.user;" parent="1" vertex="1">
          <mxGeometry x="140" y="288.5" width="78" height="78" as="geometry" />
        </mxCell>
        <mxCell id="4QWSZfUUT_y2l5mApA1l-26" value="User" style="text;html=1;strokeColor=none;fillColor=none;align=center;verticalAlign=middle;whiteSpace=wrap;rounded=0;" parent="1" vertex="1">
          <mxGeometry x="149" y="388" width="60" height="30" as="geometry" />
        </mxCell>
        <mxCell id="M6X5e_UlNOtrp2TcjelM-6" value="internet&lt;br&gt;gateway" style="text;html=1;strokeColor=none;fillColor=none;align=center;verticalAlign=middle;whiteSpace=wrap;rounded=0;" parent="1" vertex="1">
          <mxGeometry x="380" y="265" width="60" height="30" as="geometry" />
        </mxCell>
        <mxCell id="4QWSZfUUT_y2l5mApA1l-8" value="" style="outlineConnect=0;dashed=0;verticalLabelPosition=bottom;verticalAlign=top;align=center;html=1;shape=mxgraph.aws3.internet_gateway;fillColor=#F58534;gradientColor=none;" parent="1" vertex="1">
          <mxGeometry x="385" y="310" width="40" height="35" as="geometry" />
        </mxCell>
        <mxCell id="M6X5e_UlNOtrp2TcjelM-25" value="Auto Scaling group" style="points=[[0,0],[0.25,0],[0.5,0],[0.75,0],[1,0],[1,0.25],[1,0.5],[1,0.75],[1,1],[0.75,1],[0.5,1],[0.25,1],[0,1],[0,0.75],[0,0.5],[0,0.25]];outlineConnect=0;gradientColor=none;html=1;whiteSpace=wrap;fontSize=12;fontStyle=0;container=1;pointerEvents=0;collapsible=0;recursiveResize=0;shape=mxgraph.aws4.groupCenter;grIcon=mxgraph.aws4.group_auto_scaling_group;grStroke=1;strokeColor=#D86613;fillColor=none;verticalAlign=top;align=center;fontColor=#D86613;dashed=1;spacingTop=25;" parent="1" vertex="1">
          <mxGeometry x="540" y="630" width="610" height="90" as="geometry" />
        </mxCell>
        <mxCell id="4QWSZfUUT_y2l5mApA1l-12" value="" style="outlineConnect=0;dashed=0;verticalLabelPosition=bottom;verticalAlign=top;align=center;html=1;shape=mxgraph.aws3.ec2;fillColor=#F58534;gradientColor=none;" parent="M6X5e_UlNOtrp2TcjelM-25" vertex="1">
          <mxGeometry x="65" y="25" width="50" height="40" as="geometry" />
        </mxCell>
        <mxCell id="4QWSZfUUT_y2l5mApA1l-13" value="" style="outlineConnect=0;dashed=0;verticalLabelPosition=bottom;verticalAlign=top;align=center;html=1;shape=mxgraph.aws3.ec2;fillColor=#F58534;gradientColor=none;" parent="M6X5e_UlNOtrp2TcjelM-25" vertex="1">
          <mxGeometry x="500" y="25" width="50" height="40" as="geometry" />
        </mxCell>
        <mxCell id="M6X5e_UlNOtrp2TcjelM-27" value="" style="edgeStyle=orthogonalEdgeStyle;html=1;endArrow=block;elbow=vertical;startArrow=none;endFill=1;strokeColor=#545B64;rounded=0;entryX=0;entryY=0.5;entryDx=0;entryDy=0;entryPerimeter=0;" parent="1" target="4QWSZfUUT_y2l5mApA1l-8" edge="1">
          <mxGeometry width="100" relative="1" as="geometry">
            <mxPoint x="200" y="327" as="sourcePoint" />
            <mxPoint x="300" y="327" as="targetPoint" />
          </mxGeometry>
        </mxCell>
      </root>
    </mxGraphModel>
  </diagram>
</mxfile>
